<svg height="100%" stroke-miterlimit="10"
     style="fill-rule:nonzero;clip-rule:evenodd;stroke-linecap:round;stroke-linejoin:round;" version="1.1"
     viewBox="0 0 500 500" width="100%" xml:space="preserve" xmlns="http://www.w3.org/2000/svg">
<defs/>
<g id="Layer">
<path d="M250.016 145.448C272.516 173.752 285.819 198.484 290.194 219.733C310.373 298.304 189.659 298.304 209.748 219.733C214.659 198.037 227.873 173.305 249.927 145.448L250.016 145.448ZM126.624 80.0913C164.213 63.7521 201.356 89.8234 233.141 125.18C140.374 241.34 191.981 303.751 250.016 303.751C299.034 303.751 326.087 262.233 315.462 214.019C309.301 187.948 292.962 158.305 266.891 125.18C295.909 92.9484 320.998 78.1271 342.962 76.1628C387.605 69.5557 422.515 112.859 406.622 157.502C393.14 192.501 306.891 363.929 303.141 373.215C289.034 400.09 280.284 424.464 250.105 424.464C221.266 424.464 211.356 401.34 196.177 370.983C164.034 307.947 116.356 212.501 93.6776 157.502C81.892 127.948 94.9276 93.8413 126.713 80.1806L126.624 80.0913ZM84.6598 201.609C199.748 446.518 206.177 450 250.016 450C290.641 450 307.962 421.697 325.641 385C420.372 195.448 429.569 168.573 430.372 166.252C452.872 104.377 406.533 50.0022 350.373 50.0022C330.998 50.0022 296.266 55.4486 250.016 105.716C197.606 48.7522 159.57 50.0022 149.659 50.0022C93.4991 49.9129 47.0707 104.377 69.6599 166.252C69.6599 169.734 84.6598 200.984 84.6598 201.609Z" fill="#000000" fill-rule="nonzero" opacity="1" stroke="none"/>
</g>
</svg>
