<svg height="100%" stroke-miterlimit="10" style="fill-rule:nonzero;clip-rule:evenodd;stroke-linecap:round;stroke-linejoin:round;" version="1.1" viewBox="0 0 385.849 454.945" width="100%" xml:space="preserve" xmlns="http://www.w3.org/2000/svg">
<defs/>
<g id="Слой-1">
<g opacity="1">
<path d="M190.639 54.9455L190.969 54.9455L224.079 454.945L157.189 454.945L190.639 54.9455Z" fill="#fffef2" fill-rule="nonzero" opacity="1" stroke="none"/>
<path d="M118.06 54.9455L0 454.945L157.191 454.945L168.562 329.193L213.378 329.193L224.08 454.945L383.278 454.945L266.221 54.9455L190.97 54.9455L194.314 102.772L187.291 102.772L190.635 54.9455L118.06 54.9455ZM185.953 119.494L195.652 119.494L210.033 291.4L171.572 291.4L185.953 119.494Z" fill="#1f1f1f" fill-rule="nonzero" opacity="1" stroke="none"/>
</g>
<path d="M221.639 2.84217e-14L229.639 2.84217e-14L229.639 54.9455L221.639 54.9455L221.639 2.84217e-14Z" fill="#ff0000" fill-rule="nonzero" opacity="1" stroke="none"/>
<path d="M153.639 2.84217e-14L161.639 2.84217e-14L161.639 54.9455L153.639 54.9455L153.639 2.84217e-14Z" fill="#ff0000" fill-rule="nonzero" opacity="1" stroke="none"/>
<path d="M130.639 1.65966e-16L252.639 1.65966e-16L252.639 22L130.639 22L130.639 1.65966e-16Z" fill="#ff0000" fill-rule="nonzero" opacity="1" stroke="none"/>
<g opacity="1">
<path d="M131.639 1L151.639 1L171.639 21L151.639 21L131.639 1Z" fill="#fff2f2" fill-rule="nonzero" opacity="1" stroke="none"/>
<path d="M171.639 1L191.639 1L211.639 21L191.639 21L171.639 1Z" fill="#fff2f2" fill-rule="nonzero" opacity="1" stroke="none"/>
<path d="M211.639 1L231.639 1L251.639 21L231.639 21L211.639 1Z" fill="#fff2f2" fill-rule="nonzero" opacity="1" stroke="none"/>
</g>
</g>
</svg>
