<svg height="100%" stroke-miterlimit="10" style="fill-rule:nonzero;clip-rule:evenodd;stroke-linecap:round;stroke-linejoin:round;" version="1.1" viewBox="0 0 429.16 70" width="100%" xml:space="preserve" xmlns="http://www.w3.org/2000/svg">
<defs/>
<g id="Слой-1">
<path d="M42.9688 0C42.3919 0 41.9062 0.454391 41.9062 1.03125L41.9062 11.6562C41.9028 11.9355 42.023 12.207 42.2188 12.4062C42.6295 12.8141 43.2767 12.8141 43.6875 12.4062C43.8833 12.2077 44.0036 11.9362 44 11.6562L44 1.03125C44 0.454391 43.5456 0 42.9688 0ZM276.25 10L276.25 10.1562C276.373 10.6116 276.502 11.1792 276.625 11.8438C276.736 12.5206 276.851 13.3403 276.938 14.3125C277.011 15.2847 277.095 16.4143 277.156 17.7188C277.218 19.0355 277.225 20.5394 277.25 22.25C276.032 22.25 274.909 22.2434 273.875 22.2188C272.841 22.1941 271.969 22.143 271.219 22.0938L271.219 25.2812L277.25 25.0625L277.25 49.125C277.25 52.8169 278.172 55.5461 279.969 57.2812C281.753 59.0287 284.245 59.9062 287.469 59.9062C288.539 59.9062 289.494 59.8229 290.281 59.6875C291.081 59.5644 291.784 59.4033 292.375 59.2188C292.953 59.0465 293.444 58.8531 293.875 58.6562C294.293 58.447 294.654 58.2727 294.938 58.125L297.281 52.3125L296.906 52.1562C296.377 52.7962 295.834 53.4093 295.219 54C294.603 54.5784 293.965 55.1072 293.312 55.5625C292.648 56.0178 291.951 56.3855 291.25 56.6562C290.536 56.9147 289.82 57.0312 289.094 57.0312C288.405 57.0312 287.727 56.9346 287.062 56.75C286.398 56.5531 285.798 56.2167 285.281 55.6875C284.764 55.1583 284.351 54.423 284.031 53.5C283.699 52.5647 283.531 51.364 283.531 49.875L283.531 25.0625C285.119 25.0748 286.667 25.1004 288.156 25.125C289.645 25.1496 290.981 25.2008 292.125 25.25C293.479 25.2992 294.738 25.3191 295.969 25.3438L296.625 21.6875C296.354 21.7367 295.837 21.7822 295 21.8438C294.175 21.9053 293.162 21.9697 291.969 22.0312C290.787 22.0928 289.452 22.1193 288 22.1562C286.548 22.1932 285.045 22.2254 283.531 22.25C283.556 20.5148 283.607 19.0043 283.656 17.6875C283.718 16.383 283.789 15.2411 283.875 14.2812C283.961 13.3091 284.064 12.5206 284.188 11.8438C284.311 11.1792 284.446 10.6116 284.594 10.1562L284.594 10L276.25 10ZM13.3125 12.2812C13.0462 12.2813 12.798 12.3921 12.5938 12.5938C12.1871 12.9997 12.1911 13.6526 12.5938 14.0625L20.0938 21.5625C20.2886 21.7596 20.5354 21.8737 20.8125 21.875C21.0896 21.8763 21.3658 21.7577 21.5625 21.5625C21.7599 21.3676 21.8737 21.1211 21.875 20.8438C21.8763 20.5664 21.758 20.2905 21.5625 20.0938L14.0625 12.5938C13.8582 12.3921 13.5788 12.2812 13.3125 12.2812ZM72.5938 12.3125C72.3344 12.3052 72.0823 12.4075 71.875 12.5938L64.3438 20.0938C64.1452 20.2887 64.0348 20.5638 64.0312 20.8438C64.0308 21.121 64.1486 21.3655 64.3438 21.5625C64.5398 21.7609 64.8149 21.875 65.0938 21.875C65.3726 21.875 65.6477 21.7609 65.8438 21.5625L73.3438 14.0625C73.7184 13.65 73.7055 13.0201 73.3125 12.625C73.116 12.4274 72.8531 12.3198 72.5938 12.3125ZM42.9688 16.9688C28.5935 16.9688 16.9375 28.6159 16.9375 42.9688C16.9301 48.502 18.6856 53.8898 21.9688 58.3438L63.9375 58.3438C67.2214 53.8904 69.01 48.502 69 42.9688C69 28.615 57.344 16.9688 42.9688 16.9688ZM126.062 21.5312C125.004 21.5312 123.952 21.699 122.906 22.0312C121.86 22.3758 120.834 22.8212 119.812 23.375C118.803 23.9288 117.835 24.5675 116.875 25.2812C115.915 26.0073 114.98 26.7493 114.094 27.5C114.168 26.2448 114.271 25.2251 114.406 24.4375C114.529 23.6376 114.678 22.96 114.875 22.4062L114.875 22.25L106.562 22.25L106.562 22.4062C106.71 22.9108 106.833 23.5429 106.969 24.2812C107.104 25.0319 107.207 25.9549 107.281 27.0625C107.367 28.1577 107.438 29.474 107.5 31C107.562 32.526 107.594 34.3199 107.594 36.375L107.594 45.0625C107.594 47.1176 107.562 48.9115 107.5 50.4375C107.438 51.9635 107.367 53.2797 107.281 54.375C107.207 55.4826 107.104 56.4056 106.969 57.1562C106.833 57.8946 106.71 58.5267 106.562 59.0312L106.562 59.1875L114.875 59.1875L114.875 59.0312C114.727 58.5267 114.623 57.8946 114.5 57.1562C114.377 56.4056 114.242 55.4826 114.156 54.375C114.058 53.2798 113.987 51.9635 113.938 50.4375C113.888 48.9115 113.875 47.1176 113.875 45.0625L113.875 35.7812L113.875 33.1875C113.875 32.363 113.888 31.6077 113.938 30.9062C114.725 30.2294 115.569 29.5841 116.406 28.9688C117.255 28.3657 118.069 27.8426 118.906 27.375C119.755 26.8951 120.594 26.5207 121.406 26.25C122.231 25.9916 122.999 25.875 123.75 25.875C125.116 25.875 126.2 26.1726 127 26.8125C127.788 27.4401 128.342 28.2854 128.625 29.3438L129.219 29.5L131 22.625C130.705 22.5142 130.414 22.3731 130.094 22.25C129.786 22.1146 129.456 21.9858 129.062 21.875C128.681 21.7642 128.23 21.6865 127.75 21.625C127.27 21.5635 126.715 21.5312 126.062 21.5312ZM265.562 21.5312C264.504 21.5312 263.452 21.699 262.406 22.0312C261.36 22.3758 260.322 22.8212 259.312 23.375C258.303 23.9288 257.304 24.5675 256.344 25.2812C255.384 26.0073 254.48 26.7493 253.594 27.5C253.655 26.2448 253.771 25.2251 253.906 24.4375C254.029 23.6376 254.178 22.96 254.375 22.4062L254.375 22.25L246.031 22.25L246.031 22.4062C246.179 22.9108 246.333 23.5429 246.469 24.2812C246.604 25.0319 246.707 25.9549 246.781 27.0625C246.867 28.1577 246.938 29.474 247 31C247.062 32.526 247.094 34.3199 247.094 36.375L247.094 45.0625C247.094 47.1176 247.062 48.9115 247 50.4375C246.938 51.9635 246.867 53.2797 246.781 54.375C246.707 55.4826 246.604 56.4056 246.469 57.1562C246.333 57.8946 246.179 58.5267 246.031 59.0312L246.031 59.1875L254.375 59.1875L254.375 59.0312C254.227 58.5267 254.092 57.8946 253.969 57.1562C253.846 56.4056 253.755 55.4826 253.656 54.375C253.57 53.2798 253.487 51.9635 253.438 50.4375C253.388 48.9115 253.375 47.1176 253.375 45.0625L253.375 35.7812L253.375 33.1875C253.375 32.363 253.388 31.6077 253.438 30.9062C254.225 30.2294 255.038 29.5841 255.875 28.9688C256.712 28.3657 257.569 27.8426 258.406 27.375C259.255 26.8951 260.094 26.5207 260.906 26.25C261.731 25.9916 262.499 25.875 263.25 25.875C264.616 25.875 265.681 26.1726 266.469 26.8125C267.269 27.4401 267.811 28.2854 268.094 29.3438L268.719 29.5L270.5 22.625C270.205 22.5142 269.914 22.3731 269.594 22.25C269.286 22.1146 268.925 21.9858 268.531 21.875C268.15 21.7642 267.73 21.6865 267.25 21.625C266.77 21.5635 266.215 21.5312 265.562 21.5312ZM362.875 21.5312C361.817 21.5312 360.765 21.699 359.719 22.0312C358.673 22.3758 357.634 22.8212 356.625 23.375C355.616 23.9288 354.628 24.5675 353.656 25.2812C352.696 26.0073 351.792 26.7493 350.906 27.5C350.98 26.2448 351.052 25.2251 351.188 24.4375C351.323 23.6376 351.503 22.96 351.688 22.4062L351.688 22.25L343.375 22.25L343.375 22.4062C343.51 22.9108 343.658 23.5429 343.781 24.2812C343.917 25.0319 344.008 25.9549 344.094 27.0625C344.168 28.1577 344.251 29.474 344.312 31C344.374 32.526 344.406 34.3199 344.406 36.375L344.406 45.0625C344.406 47.1176 344.374 48.9115 344.312 50.4375C344.251 51.9635 344.168 53.2797 344.094 54.375C344.008 55.4826 343.917 56.4056 343.781 57.1562C343.658 57.8946 343.51 58.5267 343.375 59.0312L343.375 59.1875L351.688 59.1875L351.688 59.0312C351.552 58.5267 351.404 57.8946 351.281 57.1562C351.158 56.4056 351.067 55.4826 350.969 54.375C350.87 53.2798 350.799 51.9635 350.75 50.4375C350.701 48.9115 350.656 47.1176 350.656 45.0625L350.656 35.7812L350.656 33.1875C350.656 32.363 350.701 31.6077 350.75 30.9062C351.55 30.2294 352.351 29.5841 353.188 28.9688C354.037 28.3657 354.882 27.8426 355.719 27.375C356.568 26.8951 357.394 26.5207 358.219 26.25C359.031 25.9916 359.812 25.875 360.562 25.875C361.928 25.875 363.013 26.1726 363.812 26.8125C364.6 27.4401 365.142 28.2854 365.438 29.3438L366.031 29.5L367.812 22.625C367.517 22.5142 367.214 22.3731 366.906 22.25C366.586 22.1146 366.225 21.9858 365.844 21.875C365.45 21.7642 365.042 21.6865 364.562 21.625C364.083 21.5635 363.515 21.5312 362.875 21.5312ZM391.812 21.5312C390.754 21.5312 389.702 21.699 388.656 22.0312C387.61 22.3758 386.572 22.8212 385.562 23.375C384.553 23.9288 383.585 24.5675 382.625 25.2812C381.665 26.0073 380.742 26.7493 379.844 27.5C379.918 26.2448 380.033 25.2251 380.156 24.4375C380.292 23.6376 380.428 22.96 380.625 22.4062L380.625 22.25L372.312 22.25L372.312 22.4062C372.46 22.9108 372.583 23.5429 372.719 24.2812C372.854 25.0319 372.945 25.9549 373.031 27.0625C373.117 28.1577 373.188 29.474 373.25 31C373.312 32.526 373.344 34.3199 373.344 36.375L373.344 45.0625C373.344 47.1176 373.312 48.9115 373.25 50.4375C373.188 51.9635 373.117 53.2797 373.031 54.375C372.945 55.4826 372.854 56.4056 372.719 57.1562C372.583 57.8946 372.46 58.5267 372.312 59.0312L372.312 59.1875L380.625 59.1875L380.625 59.0312C380.477 58.5267 380.361 57.8946 380.25 57.1562C380.127 56.4056 380.005 55.4826 379.906 54.375C379.808 53.2798 379.737 51.9635 379.688 50.4375C379.638 48.9115 379.625 47.1176 379.625 45.0625L379.625 35.7812L379.625 33.1875C379.625 32.363 379.638 31.6077 379.688 30.9062C380.475 30.2294 381.319 29.5841 382.156 28.9688C382.993 28.3657 383.851 27.8426 384.688 27.375C385.524 26.8951 386.344 26.5207 387.156 26.25C387.981 25.9916 388.749 25.875 389.5 25.875C390.866 25.875 391.962 26.1726 392.75 26.8125C393.55 27.4401 394.092 28.2854 394.375 29.3438L395 29.5L396.75 22.625C396.467 22.5142 396.164 22.3731 395.844 22.25C395.536 22.1146 395.194 21.9858 394.812 21.875C394.431 21.7642 393.98 21.6865 393.5 21.625C393.02 21.5635 392.465 21.5312 391.812 21.5312ZM413.938 21.5312C413.027 21.5312 412.149 21.5635 411.312 21.625C410.488 21.6865 409.694 21.7898 408.906 21.9375C408.106 22.0729 407.338 22.2662 406.562 22.5C405.8 22.7338 405.006 23.0181 404.219 23.375L401.781 28.4688L402.125 28.6562C403.282 27.7702 404.347 27.0471 405.344 26.4688C406.341 25.8904 407.277 25.4383 408.188 25.0938C409.086 24.7615 409.976 24.5227 410.812 24.375C411.649 24.2273 412.514 24.1563 413.375 24.1562C414.63 24.1562 415.766 24.3373 416.812 24.7188C417.859 25.0879 418.762 25.6556 419.5 26.4062C420.251 27.1692 420.832 28.1368 421.25 29.2812C421.656 30.438 421.844 31.8188 421.844 33.4062L421.844 35.25C420.404 35.2746 418.817 35.3334 417.094 35.4688C415.359 35.5918 413.597 35.8429 411.812 36.1875C410.028 36.5444 408.318 37.0097 406.656 37.625C404.995 38.228 403.511 39.0468 402.219 40.0312C400.914 41.0157 399.881 42.2032 399.094 43.5938C398.318 44.9967 397.938 46.6238 397.938 48.5312C397.938 52.137 399.098 54.9183 401.375 56.875C403.664 58.8317 406.878 59.8125 411.062 59.8125C412.33 59.8125 413.492 59.6903 414.562 59.4688C415.633 59.2349 416.626 58.9629 417.5 58.5938C418.386 58.2123 419.155 57.7991 419.844 57.3438C420.533 56.8761 421.12 56.4307 421.625 56C421.576 56.6768 421.53 57.2701 421.469 57.75C421.407 58.2299 421.311 58.6498 421.188 59.0312L421.188 59.1875L429.156 59.1875L429.156 59.0312C429.009 58.5267 428.873 57.8946 428.75 57.1562C428.615 56.4056 428.492 55.4826 428.406 54.375C428.32 53.2798 428.268 51.9635 428.219 50.4375C428.157 48.9115 428.125 47.1176 428.125 45.0625L428.125 33.3125C428.125 31.6881 427.842 30.1463 427.312 28.7188C426.783 27.2912 425.957 26.0394 424.812 24.9688C423.668 23.8981 422.222 23.0841 420.438 22.4688C418.641 21.8534 416.46 21.5312 413.938 21.5312ZM151.312 21.5938C148.814 21.5938 146.466 22.0714 144.312 23.0312C142.159 24.0034 140.3 25.3519 138.688 27.0625C137.075 28.7608 135.817 30.7802 134.906 33.0938C133.996 35.4196 133.531 37.9366 133.531 40.6562C133.531 43.7328 134.034 46.444 135.031 48.8438C136.028 51.2311 137.39 53.2506 139.125 54.875C140.86 56.4994 142.893 57.7257 145.219 58.5625C147.545 59.4116 150.029 59.8125 152.688 59.8125C155.21 59.8125 157.378 59.5926 159.188 59.125C160.984 58.6574 162.539 58.0831 163.844 57.4062L166.5 51L166.094 50.7812C165.54 51.7042 164.862 52.5249 164.062 53.3125C163.275 54.0878 162.365 54.7777 161.344 55.3438C160.335 55.9221 159.231 56.3675 158 56.6875C156.757 57.0198 155.422 57.1875 154.031 57.1875C152.013 57.1875 150.225 56.8065 148.625 56.0312C147.025 55.2683 145.651 54.1775 144.531 52.75C143.411 51.3225 142.546 49.5807 141.906 47.5625C141.266 45.5443 140.885 43.2794 140.75 40.7812C142.337 40.732 144.112 40.7121 146.094 40.6875C148.075 40.6629 150.095 40.6562 152.188 40.6562C155.129 40.6562 157.968 40.6629 160.688 40.6875C163.407 40.7121 166.093 40.732 168.812 40.7812C168.739 37.7293 168.254 35.0247 167.344 32.625C166.445 30.2376 165.238 28.2182 163.688 26.5938C162.137 24.9693 160.304 23.7364 158.188 22.875C156.071 22.0259 153.786 21.5937 151.312 21.5938ZM219.375 21.5938C216.618 21.5938 214.037 22.0714 211.625 23.0312C209.225 24.0034 207.147 25.3519 205.375 27.0625C203.615 28.7608 202.197 30.7802 201.188 33.0938C200.178 35.4196 199.687 37.9366 199.688 40.6562C199.688 43.6097 200.216 46.2622 201.25 48.625C202.284 50.9878 203.684 52.9949 205.469 54.6562C207.241 56.3176 209.312 57.614 211.688 58.5C214.075 59.3984 216.617 59.8125 219.312 59.8125C222.475 59.8125 225.27 59.296 227.719 58.25C230.155 57.204 232.22 55.8223 233.906 54.0625C235.592 52.3027 236.845 50.2766 237.719 48C238.58 45.7111 239.031 43.3485 239.031 40.875C239.031 37.9092 238.521 35.2311 237.5 32.8438C236.479 30.4687 235.066 28.4738 233.281 26.8125C231.509 25.1512 229.419 23.8671 227.031 22.9688C224.644 22.0704 222.095 21.5937 219.375 21.5938ZM319.125 21.5938C316.627 21.5938 314.31 22.0714 312.156 23.0312C310.003 24.0034 308.112 25.3519 306.5 27.0625C304.9 28.7608 303.629 30.7802 302.719 33.0938C301.808 35.4196 301.344 37.9366 301.344 40.6562C301.344 43.7328 301.847 46.444 302.844 48.8438C303.841 51.2311 305.202 53.2506 306.938 54.875C308.66 56.4994 310.693 57.7257 313.031 58.5625C315.357 59.4116 317.861 59.8125 320.531 59.8125C323.054 59.8125 325.235 59.5926 327.031 59.125C328.84 58.6574 330.364 58.0831 331.656 57.4062L334.344 51L333.906 50.7812C333.352 51.7042 332.694 52.5249 331.906 53.3125C331.106 54.0878 330.197 54.7777 329.188 55.3438C328.178 55.9221 327.055 56.3675 325.812 56.6875C324.582 57.0198 323.278 57.1875 321.875 57.1875C319.857 57.1875 318.025 56.8065 316.438 56.0312C314.838 55.2683 313.495 54.1775 312.375 52.75C311.267 51.3225 310.378 49.5807 309.75 47.5625C309.11 45.5443 308.71 43.2794 308.562 40.7812C310.15 40.732 311.925 40.7121 313.906 40.6875C315.9 40.6629 317.939 40.6562 320.031 40.6562C322.96 40.6562 325.78 40.6629 328.5 40.6875C331.207 40.7121 333.937 40.732 336.656 40.7812C336.582 37.7293 336.086 35.0247 335.188 32.625C334.289 30.2376 333.051 28.2182 331.5 26.5938C329.949 24.9693 328.117 23.7364 326 22.875C323.896 22.0259 321.599 21.5937 319.125 21.5938ZM184.469 21.6875C182.955 21.6875 181.549 21.9197 180.281 22.375C179.001 22.8303 177.923 23.4757 177 24.3125C176.065 25.137 175.329 26.1122 174.812 27.2812C174.296 28.438 174.063 29.7221 174.062 31.125C174.062 32.8233 174.424 34.3584 175.125 35.6875C175.839 37.0289 176.711 38.2551 177.781 39.375C178.864 40.4949 180.051 41.5155 181.281 42.5C182.524 43.4968 183.667 44.4843 184.75 45.4688C185.833 46.4532 186.736 47.4919 187.438 48.5625C188.151 49.6331 188.5 50.7827 188.5 52.0625C188.5 53.65 187.984 54.953 186.938 55.9375C185.891 56.922 184.491 57.4063 182.719 57.4062C181.636 57.4062 180.629 57.2129 179.719 56.8438C178.796 56.4746 177.995 55.977 177.281 55.3125C176.567 54.648 175.98 53.8415 175.5 52.9062C175.02 51.971 174.652 50.9447 174.406 49.8125L173.844 49.8125L173.469 56.6562C173.973 57.0131 174.554 57.3875 175.219 57.7812C175.883 58.175 176.632 58.555 177.469 58.875C178.293 59.195 179.191 59.466 180.188 59.6875C181.184 59.909 182.262 60 183.406 60C185.363 60 187.035 59.71 188.438 59.1562C189.84 58.5902 191.008 57.8605 191.906 56.9375C192.817 56.0268 193.476 54.9816 193.906 53.8125C194.337 52.6434 194.562 51.4494 194.562 50.2188C194.562 48.7051 194.207 47.3168 193.469 46C192.743 44.6955 191.795 43.4693 190.688 42.3125C189.58 41.1557 188.405 40.0271 187.125 38.9688C185.833 37.9104 184.639 36.8898 183.531 35.8438C182.424 34.7977 181.52 33.7269 180.781 32.6562C180.055 31.5856 179.688 30.4626 179.688 29.2812C179.688 28.4444 179.798 27.7091 180.094 27.0938C180.377 26.4661 180.789 25.9497 181.281 25.5312C181.773 25.1128 182.335 24.7717 183 24.5625C183.652 24.341 184.387 24.25 185.125 24.25C186.208 24.25 187.144 24.4244 187.969 24.7812C188.793 25.1258 189.534 25.5646 190.125 26.0938C190.716 26.6229 191.193 27.1849 191.562 27.8125C191.932 28.4401 192.203 29.04 192.375 29.5938L192.875 29.5L192.5 23.5312C191.799 23.1375 190.81 22.7432 189.469 22.3125C188.14 21.8941 186.475 21.6875 184.469 21.6875ZM150.656 24.25C152.195 24.25 153.607 24.5722 154.875 25.1875C156.155 25.8151 157.252 26.687 158.188 27.8438C159.123 29.0005 159.897 30.4012 160.5 32.0625C161.103 33.7238 161.497 35.5954 161.719 37.6875C159.75 37.7613 157.537 37.8002 155.125 37.8125C152.713 37.8248 150.306 37.8438 147.906 37.8438L144.156 37.8438C142.95 37.8438 141.833 37.7992 140.75 37.75C140.848 35.6087 141.158 33.7049 141.688 32.0312C142.217 30.3699 142.908 28.9693 143.781 27.8125C144.643 26.6557 145.656 25.7716 146.812 25.1562C147.982 24.5409 149.266 24.25 150.656 24.25ZM218.562 24.25C220.778 24.25 222.714 24.6831 224.375 25.5938C226.024 26.5167 227.405 27.7818 228.5 29.4062C229.595 31.0184 230.415 32.9724 230.969 35.1875C231.523 37.4149 231.813 39.8096 231.812 42.4062C231.812 44.7075 231.516 46.7914 230.938 48.625C230.359 50.4463 229.553 52.0014 228.531 53.2812C227.498 54.5488 226.24 55.5107 224.812 56.1875C223.385 56.8643 221.836 57.1875 220.125 57.1875C217.935 57.1875 216.012 56.7355 214.375 55.8125C212.726 54.8895 211.358 53.5742 210.25 51.9375C209.142 50.2885 208.304 48.3647 207.75 46.125C207.184 43.8976 206.906 41.4716 206.906 38.875C206.906 36.5614 207.172 34.5088 207.75 32.6875C208.328 30.8785 209.141 29.3367 210.188 28.0938C211.234 26.8385 212.46 25.9022 213.875 25.25C215.29 24.5855 216.852 24.25 218.562 24.25ZM318.469 24.25C320.007 24.25 321.408 24.5722 322.688 25.1875C323.955 25.8151 325.065 26.687 326 27.8438C326.948 29.0005 327.709 30.4012 328.312 32.0625C328.916 33.7238 329.322 35.5954 329.531 37.6875C327.562 37.7613 325.381 37.8002 322.969 37.8125C320.557 37.8248 318.131 37.8438 315.719 37.8438L312 37.8438C310.794 37.8438 309.645 37.7992 308.562 37.75C308.661 35.6087 308.971 33.7049 309.5 32.0312C310.029 30.3699 310.72 28.9693 311.594 27.8125C312.455 26.6557 313.456 25.7716 314.625 25.1562C315.794 24.5409 317.078 24.25 318.469 24.25ZM421.844 38.0312L421.844 45.0625L421.844 48.875C421.844 49.9826 421.83 51.0268 421.781 51.9375C421.511 52.4913 421.13 53.0343 420.625 53.625C420.12 54.2157 419.488 54.7578 418.75 55.25C418.012 55.7422 417.198 56.1677 416.25 56.5C415.302 56.82 414.238 56.9688 413.094 56.9688C410.583 56.9688 408.634 56.239 407.219 54.75C405.804 53.261 405.063 51.0927 405.062 48.25C405.062 46.0472 405.546 44.2789 406.469 42.9375C407.392 41.6084 408.637 40.5575 410.188 39.8438C411.738 39.1177 413.513 38.6713 415.531 38.4375C417.549 38.2037 419.665 38.0559 421.844 38.0312ZM1.03125 41.9062C0.455379 41.9063 0 42.3929 0 42.9688C0 43.5446 0.455379 44 1.03125 44L11.6562 44C12.2331 44 12.6875 43.5456 12.6875 42.9688C12.6875 42.3919 12.2331 41.9062 11.6562 41.9062L1.03125 41.9062ZM74.25 41.9062C73.6731 41.9062 73.2188 42.3919 73.2188 42.9688C73.2188 43.5456 73.6731 44 74.25 44L84.875 44C85.4509 44 85.9375 43.5446 85.9375 42.9688C85.9375 42.3929 85.4509 41.9062 84.875 41.9062L74.25 41.9062ZM6.34375 62.5938C6.06579 62.5933 5.82163 62.7098 5.625 62.9062C5.42837 63.1027 5.31226 63.3783 5.3125 63.6562C5.31179 63.9345 5.42832 64.2094 5.625 64.4062C5.82168 64.6031 6.06548 64.688 6.34375 64.6875L79.5625 64.6875C79.8405 64.688 80.1159 64.6027 80.3125 64.4062C80.5091 64.2098 80.6252 63.9342 80.625 63.6562C80.6255 63.3781 80.5092 63.1029 80.3125 62.9062C80.1158 62.7096 79.8406 62.5933 79.5625 62.5938L6.34375 62.5938ZM33.8125 67.9062C33.2366 67.9063 32.7812 68.3929 32.7812 68.9688C32.7812 69.5446 33.2366 70 33.8125 70L52.125 70C52.5078 70.0159 52.8664 69.8291 53.0625 69.5C53.2586 69.1709 53.2586 68.7666 53.0625 68.4375C52.8664 68.1084 52.5078 67.8904 52.125 67.9062L33.8125 67.9062Z" fill="currentColor" fill-rule="nonzero" opacity="1" stroke="none"/>
</g>
</svg>
