<svg stroke-miterlimit="10" style="fill-rule:nonzero;clip-rule:evenodd;stroke-linecap:round;stroke-linejoin:round;" version="1.1" viewBox="0 0 909.83 147.3" width="120px" xml:space="preserve" xmlns="http://www.w3.org/2000/svg" xmlns:xlink="http://www.w3.org/1999/xlink">
<defs/>
<clipPath id="ArtboardFrame">
<rect height="147.3" width="909.83" x="0" y="0"/>
</clipPath>
<g clip-path="url(#ArtboardFrame)" id="Слой-1">
<path d="M100.032 126.2C102.132 126.2 104.132 125.7 106.032 124.6L127.932 112C132.332 109.5 137.432 108.4 142.532 109C169.132 112.1 187.732 117.1 193.232 118.7C194.332 119 195.632 118.6 196.332 117.7C197.232 116.6 198.332 114.8 199.232 112.2C200.032 109.7 200.132 107.6 200.032 106.1C199.932 104.9 199.132 103.8 197.932 103.5C189.332 101 151.232 90.7 100.032 90.7C48.832 90.7 10.732 101 2.132 103.5C0.932 103.8 0.132 104.9 0.032 106.1C-0.068 107.5 0.032 109.6 0.832 112.2C1.632 114.8 2.832 116.6 3.732 117.7C4.432 118.6 5.732 119 6.832 118.7C12.332 117.1 31.032 112.1 57.532 109C62.632 108.4 67.732 109.5 72.132 112L94.032 124.6C95.932 125.7 98.032 126.2 100.032 126.2ZM63.532 55.3C64.732 57.4 66.632 58.8 68.832 59.4C71.032 60 73.332 59.7 75.432 58.5C77.532 57.3 78.932 55.4 79.532 53.2C80.132 51 79.832 48.7 78.632 46.6L58.932 12.5C58.332 11.4 57.032 11 55.832 11.1C54.232 11.2 52.032 12 49.432 13.5C46.832 15 45.032 16.5 44.132 17.8C43.432 18.8 43.232 20.1 43.832 21.2C43.832 21.2 63.532 55.3 63.532 55.3ZM45.532 79.7C47.632 80.9 50.032 81.1 52.132 80.6C54.332 80 56.232 78.6 57.432 76.5C58.632 74.4 58.832 72 58.332 69.9C57.832 67.8 56.332 65.8 54.232 64.6L20.132 44.9C19.032 44.3 17.732 44.5 16.732 45.2C15.432 46.1 13.932 47.9 12.432 50.5C10.932 53.1 10.132 55.3 10.032 56.9C9.932 58.2 10.432 59.4 11.432 60L45.532 79.7ZM108.732 43.2C108.732 45.6 107.732 47.8 106.232 49.4C104.632 51 102.532 51.9 100.032 51.9C97.632 51.9 95.432 50.9 93.832 49.4C92.232 47.8 91.332 45.7 91.332 43.2L91.332 3.9C91.332 2.6 92.132 1.6 93.332 1.1C94.732 0.4 97.032 0 100.032 0C103.032 0 105.332 0.4 106.732 1.1C107.832 1.7 108.732 2.6 108.732 3.9L108.732 43.2ZM136.532 55.3C135.332 57.4 133.432 58.8 131.232 59.4C129.032 60 126.732 59.7 124.632 58.5C122.532 57.3 121.132 55.4 120.532 53.2C119.932 51 120.232 48.7 121.432 46.6L141.132 12.5C141.732 11.4 143.032 11 144.232 11.1C145.832 11.2 148.032 12 150.632 13.5C153.232 15 155.032 16.5 155.932 17.8C156.632 18.8 156.832 20.1 156.232 21.2C156.232 21.2 136.532 55.3 136.532 55.3ZM154.532 79.7C152.432 80.9 150.032 81.1 147.932 80.6C145.732 80 143.832 78.6 142.632 76.5C141.432 74.4 141.232 72 141.732 69.9C142.332 67.7 143.732 65.8 145.832 64.6L179.932 44.9C181.032 44.3 182.332 44.5 183.332 45.2C184.632 46.1 186.132 47.9 187.632 50.5C189.132 53.1 189.932 55.3 190.032 56.9C190.132 58.2 189.632 59.4 188.632 60C188.632 60 154.532 79.7 154.532 79.7ZM372.032 52.6L388.432 52.6C389.032 52.6 389.532 53 389.832 53.5L406.132 95.3L421.932 53.5C422.132 52.9 422.732 52.6 423.332 52.6L439.432 52.6C440.532 52.6 441.232 53.7 440.732 54.6L400.732 146.4C400.532 146.9 399.932 147.3 399.432 147.3L385.232 147.3C384.232 147.3 383.432 146.2 383.932 145.3L397.632 113.2L370.832 54.6C370.232 53.7 370.932 52.6 372.032 52.6ZM614.132 61.9L614.132 54.1C614.132 53.3 614.832 52.6 615.632 52.6L630.132 52.6C630.932 52.6 631.632 53.3 631.632 54.1L631.632 116.4C631.632 117.2 630.932 117.9 630.132 117.9L615.632 117.9C614.832 117.9 614.132 117.2 614.132 116.4L614.132 108.2C611.032 113 604.232 119.3 593.132 119.3C571.932 119.3 560.932 103.1 560.932 85C560.932 61.4 577.332 51.3 592.632 51.3C602.732 51.2 609.732 56 614.132 61.9ZM578.432 85.1C578.432 96.3 585.332 104.9 596.432 104.9C607.532 104.9 614.632 97.4 614.632 85.9C614.632 74.4 607.732 65.6 595.932 65.6C584.832 65.6 578.432 74.2 578.432 85.1ZM644.732 116.4L644.732 54.1C644.732 53.3 645.432 52.6 646.232 52.6L660.732 52.6C661.532 52.6 662.232 53.3 662.232 54.1L662.232 62.6C665.632 56.7 672.032 51.3 682.932 51.3C694.132 51.3 706.632 56.8 706.632 82.1L706.632 116.4C706.632 117.2 705.932 117.9 705.132 117.9L690.632 117.9C689.832 117.9 689.132 117.2 689.132 116.4L689.132 82.4C689.132 76.3 687.632 65.8 676.832 65.8C666.032 65.8 662.232 75.3 662.232 84.1L662.232 116.4C662.232 117.2 661.532 117.9 660.732 117.9L646.232 117.9C645.332 117.8 644.732 117.2 644.732 116.4ZM719.032 116.4L719.032 54.1C719.032 53.3 719.732 52.6 720.532 52.6L735.032 52.6C735.832 52.6 736.532 53.3 736.532 54.1L736.532 62.6C739.932 56.7 746.332 51.3 757.232 51.3C768.432 51.3 780.932 56.8 780.932 82.1L780.932 116.4C780.932 117.2 780.232 117.9 779.432 117.9L764.932 117.9C764.132 117.9 763.432 117.2 763.432 116.4L763.432 82.4C763.432 76.3 761.932 65.8 751.132 65.8C740.332 65.8 736.532 75.3 736.532 84.1L736.532 116.4C736.532 117.2 735.832 117.9 735.032 117.9L720.532 117.9C719.732 117.8 719.032 117.2 719.032 116.4ZM871.332 52.6L885.432 52.6C886.232 52.6 886.932 53.3 886.932 54.1L886.932 67C889.732 54.2 900.732 49.8 908.732 51.7C909.432 51.8 909.832 52.4 909.832 53.1L909.832 67.3C909.832 68.2 909.032 68.9 908.032 68.7C893.232 65.8 887.232 73.8 887.232 85L887.232 116.4C887.232 117.2 886.532 117.9 885.732 117.9L871.232 117.9C870.432 117.9 869.732 117.2 869.732 116.4L869.732 54.1C869.832 53.3 870.532 52.6 871.332 52.6ZM275.932 66.8C271.432 65.3 269.032 64.4 265.432 63.2C261.732 61.9 255.432 58.3 255.432 52.5C255.432 46.7 259.432 43 267.532 43C274.932 43 279.032 46.6 281.732 52.4C282.132 53.2 283.032 53.5 283.832 53.1L295.732 46.2C296.332 45.8 296.632 45 296.332 44.3C292.732 36.4 284.332 26.9 267.732 26.9C249.232 26.9 237.632 37.9 237.632 52.4C237.632 66.8 247.132 74.3 260.032 78.7C264.732 80.3 266.632 81 270.632 82.3C278.232 84.9 281.732 88.3 281.732 93C281.732 97.7 278.732 103.3 266.932 103.3C256.132 103.3 252.332 97.6 250.132 92.2C249.832 91.4 248.832 91 248.032 91.5L235.532 98.7C234.932 99.1 234.632 99.8 234.932 100.5C239.732 112.3 252.832 119.3 267.532 119.3C284.832 119.3 299.432 110.5 299.432 92.7C299.432 74.9 280.432 68.3 275.932 66.8ZM371.432 100.8C371.032 100.1 370.032 99.8 369.332 100.3C363.732 104.4 357.132 104.5 352.132 96.8C347.932 90.3 342.832 82.3 342.832 82.3L364.832 55C365.632 54 364.932 52.6 363.732 52.6L346.532 52.6C346.032 52.6 345.632 52.8 345.332 53.2L326.332 79.3L326.332 26.8C326.332 26 325.632 25.3 324.832 25.3L310.332 25.3C309.532 25.3 308.832 26 308.832 26.8L308.832 116.4C308.832 117.2 309.532 117.9 310.332 117.9L324.932 117.9C325.732 117.9 326.432 117.2 326.432 116.4L326.432 87.3C326.432 87.3 336.132 102.6 339.832 108.3C344.832 116.1 351.832 119.3 359.432 119.3C366.632 119.3 371.232 117.4 376.732 112C377.232 111.5 377.332 110.8 377.032 110.2L371.432 100.8ZM475.532 80.2C470.932 78.5 469.332 77.9 465.832 76.6C462.332 75.3 459.232 73.4 459.232 70.6C459.232 67.8 461.832 64.7 467.132 64.7C471.732 64.7 474.532 66.5 476.132 69.7C476.532 70.5 477.432 70.7 478.132 70.3L488.332 64.4C489.032 64 489.232 63.1 488.832 62.4C486.032 57.5 480.532 51.3 467.232 51.3C450.932 51.3 442.532 60.7 442.532 71.1C442.532 81.5 451.032 86.4 458.832 89.5C467.632 93.1 468.232 93.3 469.332 93.7C472.032 94.8 475.332 96.5 475.332 99.6C475.332 102.7 471.732 105.5 466.232 105.5C461.132 105.5 455.332 103.4 452.932 97.5C452.632 96.7 451.632 96.3 450.832 96.8L440.532 102.7C439.932 103.1 439.632 103.8 439.932 104.5C442.932 112.3 451.832 119.2 466.232 119.2C481.832 119.2 492.232 110.9 492.232 99.2C492.232 87.5 484.232 83.4 475.532 80.2ZM534.132 66.8C540.632 66.8 545.432 68.8 549.932 72C550.632 72.5 551.632 72.3 552.032 71.6L558.032 61.2C558.432 60.5 558.232 59.7 557.532 59.3C551.332 55.1 543.632 51.2 533.232 51.2C522.932 51.2 513.432 54 506.632 60.9C499.832 67.7 496.732 75.8 496.732 85.4C496.732 97 501.532 104.4 506.732 109.6C511.932 114.8 521.332 119.2 533.332 119.2C544.132 119.2 552.132 114.7 557.632 111.1C558.232 110.7 558.432 109.8 558.032 109.2L552.132 98.9C551.732 98.2 550.732 97.9 550.032 98.4C546.132 101.2 540.532 103.6 534.232 103.6C527.132 103.6 514.232 99.6 514.232 85.2C514.232 70.8 527.032 66.8 534.132 66.8ZM828.332 104.8C822.532 104.8 817.032 103.4 813.032 100.2C809.032 97 807.132 93.7 807.132 89.8L858.932 89.8C859.732 89.8 860.432 89.1 860.432 88.3C860.132 72.9 855.132 65.7 850.332 60.8C845.332 55.8 836.832 51.2 825.632 51.2C814.432 51.2 805.832 55.3 799.932 61.1C794.132 66.9 789.732 74.3 789.732 85.5C789.732 96.7 794.232 104.1 799.732 109.6C805.232 115.1 814.232 119.2 827.132 119.2C839.332 119.2 849.632 114.9 857.032 106.4C857.632 105.7 857.432 104.6 856.632 104.2L846.332 98.2C845.832 97.9 845.132 97.9 844.632 98.4C839.532 103.2 833.032 104.8 828.332 104.8ZM825.532 65.2C833.832 65.2 841.432 70.2 842.632 79.2L807.732 79.2C810.032 69.5 817.232 65.2 825.532 65.2Z" fill="#0062e3" fill-rule="nonzero" opacity="1" stroke="none"/>
</g>
</svg>
