<svg height="100%" stroke-miterlimit="10" style="fill-rule:nonzero;clip-rule:evenodd;stroke-linecap:round;stroke-linejoin:round;" version="1.1" viewBox="0 0 152.268 62.8506" width="100%" xml:space="preserve" xmlns="http://www.w3.org/2000/svg">
<defs/>
<g id="Слой-1">
<path d="M137.938 0.875L9.96875 12.0625C4.46692 12.5438 0.393652 17.4044 0.875 22.9062L3.5 52.875C3.98135 58.3768 8.84192 62.4501 14.3438 61.9688L142.312 50.7812C147.814 50.2999 151.888 45.4393 151.406 39.9375L148.781 9.96875C148.3 4.46692 143.439 0.393652 137.938 0.875ZM137.469 2.9375C142.168 2.52635 146.308 5.98809 146.719 10.6875L149.25 39.5938C149.661 44.2932 146.199 48.4326 141.5 48.8438L14.7812 59.9375C10.0818 60.3486 5.94239 56.8557 5.53125 52.1562L3 23.25C2.58885 18.5506 6.08184 14.4111 10.7812 14L137.469 2.9375ZM103.594 18.9062L101.562 19.0625L102.125 25.375C101.599 24.8328 101.144 24.482 100.75 24.2812C100.069 23.9331 99.2385 23.7912 98.2812 23.875C96.5535 24.0262 95.282 24.8026 94.4688 26.2188C93.6555 27.6349 93.3407 29.2726 93.5 31.0938C93.6702 33.0394 94.3155 34.5429 95.4375 35.625C96.5595 36.7071 97.8256 37.1844 99.2188 37.0625C100.083 36.9869 100.829 36.7448 101.469 36.3438C102.108 35.9428 102.64 35.3446 103.062 34.5312L103.219 36.2812L105.094 36.0938L103.594 18.9062ZM130.531 21.2812L128.219 21.4688L125.719 31.9688L121.5 22.0625L119.125 22.2812L124.875 34.75C124.791 35.0397 124.628 35.4655 124.438 36.0625C124.247 36.6595 124.158 36.9968 124.125 37.0625C124.017 37.2602 123.859 37.4181 123.688 37.5625C123.516 37.7069 123.233 37.8097 122.844 37.8438C122.719 37.8546 122.572 37.8528 122.406 37.8438C122.241 37.8347 121.968 37.7879 121.594 37.7188L121.781 39.6562C122.02 39.6981 122.213 39.7094 122.375 39.7188C122.537 39.7281 122.767 39.7134 123.062 39.6875C124.277 39.5813 125.094 39.1503 125.531 38.4062C125.968 37.6622 126.659 35.6409 127.594 32.3438C127.989 30.9446 128.488 29.1523 129.062 26.9375C129.832 23.992 130.306 22.1088 130.531 21.2812ZM112 22.5938C110.731 22.7047 109.627 23.094 108.719 23.7812C107.81 24.4685 107.404 25.6119 107.5 27.1562L109.469 26.9688C109.49 26.316 109.616 25.8181 109.844 25.4688C110.251 24.8371 110.996 24.471 112.094 24.375C113.043 24.2919 113.774 24.3779 114.312 24.6562C114.851 24.9346 115.156 25.4402 115.219 26.1562C115.249 26.5065 115.233 26.7738 115.156 26.9688C115.023 27.3255 114.727 27.5518 114.25 27.6562L110.938 28.375C109.775 28.6257 108.855 29.111 108.188 29.8125C107.52 30.514 107.242 31.4341 107.344 32.5938C107.436 33.6522 107.859 34.5163 108.656 35.1562C109.453 35.7962 110.434 36.0702 111.594 35.9688C112.559 35.8843 113.422 35.5764 114.188 35.0938C114.953 34.6111 115.527 34.0978 115.906 33.5C116.02 33.992 116.18 34.3676 116.375 34.625C116.747 35.1101 117.307 35.3133 118.031 35.25C118.327 35.2241 118.55 35.1946 118.719 35.1562C118.888 35.1179 119.119 35.0282 119.438 34.9062L119.312 33.3438C119.182 33.3787 119.053 33.4156 118.938 33.4375C118.822 33.4594 118.718 33.4606 118.625 33.4688C118.337 33.4939 118.164 33.4682 118.062 33.3438C117.961 33.2193 117.894 33.0304 117.875 32.8125L117.25 25.625C117.147 24.442 116.616 23.6057 115.656 23.125C114.689 22.645 113.471 22.4651 112 22.5938ZM38.375 24.6562L36.25 24.8438L36.4688 27.2188L38.5938 27.0312L38.375 24.6562ZM92 24.6562L89.6562 24.8438L87.1875 35.3438L82.9375 25.4375L80.5625 25.6562L86.3125 38.125C86.228 38.4147 86.0971 38.8405 85.9062 39.4375C85.7154 40.0345 85.596 40.3718 85.5625 40.4375C85.4543 40.6352 85.3279 40.7931 85.1562 40.9375C84.9846 41.0819 84.7016 41.1847 84.3125 41.2188C84.188 41.2296 84.0405 41.2278 83.875 41.2188C83.7095 41.2097 83.4371 41.1629 83.0625 41.0938L83.2188 43.0312C83.4577 43.0731 83.6509 43.0844 83.8125 43.0938C83.9741 43.1031 84.2043 43.0884 84.5 43.0625C85.7141 42.9563 86.5632 42.5253 87 41.7812C87.4368 41.0372 88.0963 39.0159 89.0312 35.7188C89.4264 34.3196 89.9252 32.5273 90.5 30.3125C91.2697 27.367 91.7744 25.4838 92 24.6562ZM98.8438 25.6875C99.7932 25.6044 100.631 25.8914 101.344 26.5938C102.056 27.2961 102.487 28.4513 102.625 30.0312C102.762 31.5956 102.553 32.8273 102 33.7188C101.447 34.6102 100.66 35.1024 99.6875 35.1875C98.4345 35.2971 97.4909 34.9156 96.8438 34.0625C96.1966 33.2094 95.8359 32.1199 95.7188 30.7812C95.5812 29.2091 95.7882 27.9919 96.375 27.125C96.9618 26.2581 97.7853 25.7801 98.8438 25.6875ZM74.625 25.875C73.8156 25.9458 73.1024 26.1855 72.4688 26.5625C71.8351 26.9395 71.2462 27.5292 70.7188 28.3125L70.5625 26.5312L68.5625 26.6875L69.6562 39.2188L71.75 39.0312L71.1875 32.4688C71.116 31.6516 71.1209 31.0114 71.1875 30.5625C71.2541 30.1136 71.4359 29.6619 71.75 29.2188C72.1409 28.667 72.6266 28.2841 73.1875 28.0625C73.4977 27.9334 73.8769 27.8561 74.375 27.8125C75.3556 27.7267 76.0896 28.0669 76.5312 28.8125C76.7978 29.2597 76.9645 29.8623 77.0312 30.625L77.7188 38.5L79.8438 38.3125L79.1562 30.2812C79.0459 29.0204 78.7767 28.0846 78.375 27.4375C77.6441 26.2545 76.3995 25.7197 74.625 25.875ZM24.2812 27.0625L22.1562 27.25L22.4688 30.7188L20.7812 30.875L20.9375 32.5938L22.625 32.4375L23.3438 40.7188C23.4139 41.5204 23.6371 42.1537 24.0312 42.625C24.4254 43.0964 25.1131 43.3045 26.0938 43.2188C26.3973 43.1922 26.6795 43.1477 26.9375 43.0938C27.1955 43.0398 27.4524 42.9662 27.6875 42.875L27.5312 41.2188C27.377 41.2479 27.2414 41.2671 27.125 41.2812C27.0086 41.2954 26.9137 41.3036 26.8125 41.3125C26.4311 41.3459 26.1397 41.3213 25.9688 41.25C25.6601 41.128 25.5069 40.8733 25.4688 40.4375L24.75 32.25L26.75 32.0938L26.5938 30.375L24.5938 30.5625L24.2812 27.0625ZM60.1562 27.125C58.8877 27.236 57.7834 27.6565 56.875 28.3438C55.9666 29.031 55.5604 30.1431 55.6562 31.6875L57.625 31.5C57.6463 30.8472 57.7718 30.3493 58 30C58.4074 29.3683 59.1526 29.0023 60.25 28.9062C61.1995 28.8232 61.9307 28.9404 62.4688 29.2188C63.0068 29.4971 63.3124 29.9715 63.375 30.6875C63.4056 31.0377 63.3895 31.305 63.3125 31.5C63.179 31.8567 62.8833 32.1143 62.4062 32.2188L59.0938 32.9062C57.9315 33.1569 57.0117 33.6422 56.3438 34.3438C55.6758 35.0453 55.3985 35.9654 55.5 37.125C55.5926 38.1835 56.0154 39.0475 56.8125 39.6875C57.6096 40.3275 58.5904 40.6015 59.75 40.5C60.7151 40.4156 61.5782 40.1389 62.3438 39.6562C63.1093 39.1736 63.6835 38.6291 64.0625 38.0312C64.1761 38.5232 64.3362 38.8988 64.5312 39.1562C64.9031 39.6413 65.4637 39.8446 66.1875 39.7812C66.4832 39.7554 66.7058 39.7258 66.875 39.6875C67.0442 39.6492 67.275 39.5595 67.5938 39.4375L67.4688 37.875C67.3385 37.9099 67.2095 37.9469 67.0938 37.9688C66.978 37.9906 66.8746 38.0231 66.7812 38.0312C66.4933 38.0564 66.3198 37.9995 66.2188 37.875C66.1177 37.7505 66.0503 37.5617 66.0312 37.3438L65.4062 30.1562C65.3028 28.9733 64.7721 28.1369 63.8125 27.6562C62.8451 27.1762 61.6272 26.9963 60.1562 27.125ZM47.6875 28.2188C46.7302 28.3025 45.9174 28.5961 45.25 29.125C44.7791 29.4799 44.3706 29.9888 44 30.5938L43.8438 28.9062L41.8125 29.0938L43.3438 46.5312L45.4375 46.3438L44.875 39.9688C45.3839 40.4967 45.8248 40.8617 46.2188 41.0625C46.893 41.4192 47.7145 41.5511 48.6562 41.4688C49.8548 41.3639 50.8806 40.9121 51.7188 40.0938C53.0409 38.8017 53.5821 36.7865 53.3438 34.0625C53.1674 32.0468 52.5209 30.5305 51.4375 29.5312C50.3541 28.532 49.104 28.0948 47.6875 28.2188ZM115.406 28.7812L115.562 30.4688C115.676 31.7607 115.149 32.7672 114.031 33.4375C113.369 33.8405 112.677 34.0603 111.938 34.125C111.33 34.1781 110.787 34.0614 110.312 33.75C109.838 33.4386 109.584 32.9821 109.531 32.375C109.461 31.5734 109.73 30.9536 110.344 30.5312C110.706 30.28 111.246 30.0742 112 29.9062L113.281 29.625C113.666 29.5443 114.042 29.4256 114.438 29.2812C114.833 29.1369 115.164 28.9672 115.406 28.7812ZM38.8125 29.375L36.6562 29.5625L37.75 42L39.875 41.8125L38.8125 29.375ZM34.125 29.4375C33.2922 29.5104 32.5854 29.8723 32 30.5312C31.4146 31.1902 31.0642 31.7217 30.9375 32.1562L30.75 30L28.75 30.1875L29.8438 42.6875L31.9375 42.5L31.3125 35.3125C31.2349 34.4253 31.4602 33.6057 31.9688 32.875C32.4773 32.1443 33.254 31.7489 34.3125 31.6562C34.437 31.6454 34.5505 31.6264 34.6562 31.625C34.762 31.6236 34.8734 31.6438 35 31.6562L34.8125 29.4375C34.5848 29.4339 34.4378 29.4371 34.3438 29.4375C34.2497 29.4379 34.1639 29.4341 34.125 29.4375ZM47.375 30.0938C48.8226 29.9671 49.8972 30.5764 50.5625 31.9062C50.9131 32.5971 51.1316 33.4413 51.2188 34.4375C51.3617 36.0719 51.1405 37.3408 50.5625 38.2188C49.9845 39.0967 49.1994 39.5705 48.2188 39.6562C46.7712 39.7829 45.7203 39.213 45.0625 37.9688C44.7153 37.3168 44.4907 36.5276 44.4062 35.5625C44.3014 34.364 44.3739 33.366 44.5938 32.5625C45.0034 31.0601 45.9196 30.2211 47.375 30.0938ZM63.5625 33.3125L63.6875 35.0312C63.8005 36.3232 63.3052 37.2985 62.1875 37.9688C61.5248 38.3718 60.8331 38.5916 60.0938 38.6562C59.4867 38.7094 58.943 38.5927 58.4688 38.2812C57.9945 37.9698 57.7406 37.5133 57.6875 36.9062C57.6174 36.1046 57.886 35.4848 58.5 35.0625C58.8623 34.8112 59.4024 34.6054 60.1562 34.4375L61.4375 34.1562C61.8225 34.0755 62.1986 33.9569 62.5938 33.8125C62.9889 33.6681 63.32 33.4984 63.5625 33.3125Z" fill="currentColor" fill-rule="nonzero" opacity="1" stroke="none"/>
</g>
</svg>
