<svg height="100%" stroke-miterlimit="10" style="fill-rule:nonzero;clip-rule:evenodd;stroke-linecap:round;stroke-linejoin:round;" version="1.1" viewBox="0 0 130.915 62.8506" width="100%" xml:space="preserve" xmlns="http://www.w3.org/2000/svg">
<defs/>
<g id="Слой-1">
<g opacity="1">
<path d="M32.5312 0L32.5312 29.0312C32.8712 29.0312 33.1397 29.0312 33.375 29.0312C33.6103 29.0312 33.817 29.0312 34 29.0312L35.4688 29.0312L35.4688 16.5625C35.4688 15.778 35.6237 15.0236 35.9375 14.3438C36.2513 13.6639 36.6696 13.0855 37.2188 12.5625C37.7679 12.0395 38.4292 11.6132 39.1875 11.3125C39.9458 11.0118 40.7621 10.875 41.625 10.875C42.7233 10.8489 43.6428 11.0504 44.375 11.4688C45.1072 11.8871 45.647 12.5303 46 13.4062C46.353 14.2822 46.5312 15.3902 46.5312 16.75L46.5312 29.0312L49.5 29.0312L49.5 16.5938C49.5 14.6587 49.2599 13.0677 48.75 11.8125C48.2401 10.5573 47.4522 9.63268 46.4062 9.03125C45.3603 8.42982 44.0377 8.125 42.4688 8.125C41.3705 8.125 40.309 8.34182 39.25 8.8125C38.191 9.28318 37.2532 9.95755 36.4688 10.7812C35.9772 11.2974 35.7652 11.9488 35.4688 12.5625L35.4688 0L32.5312 0ZM82.25 3.1875L82.25 8.5625L77.625 8.5625L77.625 11.375L82.25 11.375L82.25 29.0312L85.1875 29.0312L85.1875 11.375L90.375 11.375L90.375 8.5625L85.1875 8.5625L85.1875 3.1875L82.25 3.1875ZM63.2812 8.125C61.477 8.125 59.8263 8.58478 58.375 9.5C56.9237 10.4152 55.7692 11.6549 54.9062 13.25C54.0433 14.8451 53.625 16.6842 53.625 18.75C53.625 20.7896 54.0382 22.6106 54.875 24.2188C55.7118 25.8269 56.843 27.103 58.2812 28.0312C59.7195 28.9595 61.3469 29.4062 63.125 29.4062C64.1448 29.4062 65.103 29.2513 66.0312 28.9375C66.9595 28.6237 67.786 28.2054 68.5312 27.6562C69.2765 27.1071 69.9145 26.4691 70.4375 25.75C70.5756 25.5601 70.6044 25.3507 70.7188 25.1562L70.7188 29.0312L73.6875 29.0312L73.6875 8.5625L70.75 8.5625L70.6875 12.3125C70.6092 12.1725 70.5884 12.0111 70.5 11.875C70.0162 11.1297 69.4066 10.4685 68.6875 9.90625C67.9684 9.34404 67.1652 8.90754 66.25 8.59375C65.3348 8.27996 64.3534 8.125 63.2812 8.125ZM120.469 8.125C118.664 8.125 117.045 8.58478 115.594 9.5C114.142 10.4152 112.988 11.6549 112.125 13.25C111.262 14.8451 110.844 16.6842 110.844 18.75C110.844 20.7896 111.257 22.6106 112.094 24.2188C112.931 25.8269 114.062 27.103 115.5 28.0312C116.938 28.9595 118.534 29.4062 120.312 29.4062C121.332 29.4062 122.322 29.2513 123.25 28.9375C124.178 28.6237 125.005 28.2054 125.75 27.6562C126.495 27.1071 127.133 26.4691 127.656 25.75C127.794 25.5601 127.823 25.3507 127.938 25.1562L127.938 29.0312L130.906 29.0312L130.906 8.5625L127.969 8.5625L127.875 12.2812C127.803 12.1535 127.8 11.9994 127.719 11.875C127.235 11.1297 126.625 10.4685 125.906 9.90625C125.187 9.34404 124.384 8.90754 123.469 8.59375C122.554 8.27996 121.541 8.125 120.469 8.125ZM3.125 8.5L0 8.5625L7.09375 29L0 29L0 62.8438L13.7188 62.8438L13.7188 29L8.90625 29L14.5 15.8438L20.25 29L15.3438 29L15.3438 62.8438L29.0625 62.8438L29.0625 29L21.9688 29L29.0625 8.5625L25.9688 8.5625L20.8438 23.625L15.4688 11.6875L13.6875 11.6875L8.21875 23.875L3.125 8.5ZM63.7812 10.9062C65.141 10.9063 66.3654 11.2576 67.4375 11.9375C68.5096 12.6174 69.3542 13.542 69.9688 14.7188C70.5833 15.8955 70.875 17.2333 70.875 18.75C70.875 20.2666 70.5833 21.6227 69.9688 22.8125C69.3542 24.0023 68.5096 24.9269 67.4375 25.5938C66.3654 26.2606 65.141 26.5938 63.7812 26.5938C62.3953 26.5938 61.1659 26.2424 60.0938 25.5625C59.0216 24.8826 58.1952 23.971 57.5938 22.7812C56.9923 21.5915 56.6875 20.2405 56.6875 18.75C56.6875 17.2333 56.9792 15.8955 57.5938 14.7188C58.2083 13.542 59.066 12.6174 60.125 11.9375C61.184 11.2576 62.3953 10.9062 63.7812 10.9062ZM121 10.9062C122.36 10.9063 123.553 11.2576 124.625 11.9375C125.697 12.6174 126.542 13.542 127.156 14.7188C127.771 15.8955 128.094 17.2333 128.094 18.75C128.094 20.2666 127.771 21.6227 127.156 22.8125C126.542 24.0023 125.697 24.9269 124.625 25.5938C123.553 26.2606 122.36 26.5938 121 26.5938C119.614 26.5938 118.385 26.2424 117.312 25.5625C116.24 24.8826 115.383 23.971 114.781 22.7812C114.18 21.5915 113.906 20.2405 113.906 18.75C113.906 17.2333 114.198 15.8955 114.812 14.7188C115.427 13.542 116.253 12.6174 117.312 11.9375C118.372 11.2576 119.614 10.9062 121 10.9062ZM127.969 33.4375L127.969 62.4688L130.906 62.4688L130.906 33.4375L127.969 33.4375ZM36 36.625L36 41.9688L31.375 41.9688L31.375 44.8125L36 44.8125L36 62.4688L38.9375 62.4688L38.9375 44.8125L44.125 44.8125L44.125 41.9688L38.9375 41.9688L38.9375 36.625L36 36.625ZM114.562 41.5C113.098 41.5 111.724 41.7764 110.469 42.3125C109.214 42.8486 108.152 43.595 107.25 44.5625C106.348 45.53 105.653 46.6744 105.156 47.9688C104.659 49.2631 104.406 50.7174 104.406 52.3125C104.406 54.3783 104.83 56.1862 105.719 57.7812C106.608 59.3764 107.855 60.6422 109.438 61.5312C111.02 62.4203 112.835 62.8438 114.875 62.8438C115.921 62.8438 116.944 62.7121 117.938 62.4375C118.931 62.1629 119.851 61.8014 120.688 61.3438C121.524 60.8861 122.242 60.3514 122.844 59.75L121.312 57.625C120.162 58.5925 119.111 59.2356 118.156 59.5625C117.202 59.8894 116.218 60.0625 115.25 60.0625C113.603 60.0625 112.226 59.7475 111.062 59.0938C109.899 58.44 109.003 57.5023 108.375 56.3125C107.842 55.3016 107.549 54.1036 107.469 52.7812L123.656 52.7812L123.688 51.4062C123.74 49.968 123.575 48.6404 123.156 47.4375C122.738 46.2346 122.105 45.1885 121.281 44.3125C120.458 43.4365 119.481 42.7468 118.344 42.25C117.206 41.7532 115.948 41.5 114.562 41.5ZM57.0625 41.5625C55.9904 41.5625 55.0141 41.7793 54.125 42.25C53.2359 42.7207 52.4532 43.3718 51.8125 44.1562C51.3055 44.777 51.0047 45.4536 50.7188 46.1562L50.6562 41.9688L47.7188 41.9688L47.7188 62.4688L50.6875 62.4688L50.6875 50.8438C50.6875 50.007 50.8323 49.2322 51.0938 48.5C51.3552 47.7678 51.7219 47.1247 52.2188 46.5625C52.7156 46.0003 53.3252 45.5638 54.0312 45.25C54.7373 44.9362 55.5484 44.7812 56.4375 44.7812C56.7513 44.7812 57.0845 44.8096 57.4375 44.875C57.7905 44.9404 58.1288 45.0306 58.4688 45.1875L59.2812 41.9062C59.0198 41.8017 58.7047 41.7216 58.3125 41.6562C57.9203 41.5909 57.507 41.5625 57.0625 41.5625ZM69.6562 41.5625C67.852 41.5625 66.2013 42.0223 64.75 42.9375C63.2987 43.8527 62.1442 45.0924 61.2812 46.6875C60.4183 48.2826 60 50.1217 60 52.1875C60 54.2271 60.4132 56.0481 61.25 57.6562C62.0868 59.2644 63.218 60.5405 64.6562 61.4688C66.0945 62.397 67.7219 62.8437 69.5 62.8438C70.5198 62.8438 71.478 62.6888 72.4062 62.375C73.3345 62.0612 74.1922 61.6429 74.9375 61.0938C75.6828 60.5446 76.2895 59.9066 76.8125 59.1875C76.9506 58.9976 76.9794 58.7882 77.0938 58.5938L77.0938 62.4688L80.0938 62.4688L80.0938 41.9688L77.125 41.9688L77.0625 45.75C76.9842 45.61 76.9634 45.4486 76.875 45.3125C76.3912 44.5672 75.8129 43.906 75.0938 43.3438C74.3746 42.7815 73.5402 42.345 72.625 42.0312C71.7098 41.7175 70.7284 41.5625 69.6562 41.5625ZM83.0625 41.9688L91.6875 62.4688L93.8125 62.4688L103 41.9688L99.8438 41.9688L92.8438 57.9688L86.3125 41.9688L83.0625 41.9688ZM70.1562 44.3438C71.516 44.3437 72.7404 44.6639 73.8125 45.3438C74.8846 46.0236 75.7292 46.9795 76.3438 48.1562C76.9583 49.333 77.25 50.6708 77.25 52.1875C77.25 53.7042 76.9583 55.0602 76.3438 56.25C75.7292 57.4398 74.8846 58.3644 73.8125 59.0312C72.7404 59.6981 71.516 60.0312 70.1562 60.0312C68.7703 60.0312 67.5409 59.6799 66.4688 59C65.3966 58.3201 64.5702 57.3773 63.9688 56.1875C63.3673 54.9977 63.0625 53.678 63.0625 52.1875C63.0625 50.6708 63.3542 49.333 63.9688 48.1562C64.5833 46.9795 65.441 46.0236 66.5 45.3438C67.559 44.6639 68.7703 44.3438 70.1562 44.3438ZM114.562 44.3438C115.818 44.3437 116.879 44.6071 117.781 45.1562C118.683 45.7054 119.409 46.4365 119.906 47.3125C120.403 48.1885 120.666 49.0899 120.719 50.0312L120.719 50.3125L107.562 50.3125C107.698 49.3877 107.924 48.5261 108.281 47.8125C108.857 46.6619 109.678 45.8071 110.75 45.2188C111.822 44.6304 113.098 44.3438 114.562 44.3438Z" fill="currentColor" fill-rule="nonzero" opacity="1" stroke="none"/>
</g>
</g>
</svg>
